<svg xmlns="http://www.w3.org/2000/svg" width="47.065" height="50.42" viewBox="0 0 47.065 50.42">
  <g id="Grupo_28" data-name="Grupo 28" transform="translate(-1680.389 -58)">
    <g id="Elipse_10" data-name="Elipse 10" transform="translate(1697.131 94.469)" fill="none" stroke="gray" stroke-width="4">
      <ellipse cx="6.976" cy="6.976" rx="6.976" ry="6.976" stroke="none"/>
      <ellipse cx="6.976" cy="6.976" rx="4.976" ry="4.976" fill="none"/>
    </g>
    <g id="Elipse_11" data-name="Elipse 11" transform="translate(1697.743 58)" fill="none" stroke="gray" stroke-width="3">
      <ellipse cx="6.119" cy="6.364" rx="6.119" ry="6.364" stroke="none"/>
      <ellipse cx="6.119" cy="6.364" rx="4.619" ry="4.864" fill="none"/>
    </g>
    <path id="Trazado_5" data-name="Trazado 5" d="M1211.2,653.38s23.214-.023,33.781,0c3.572.06,5.6-.826,6.018-1.6,2.125-4-4.534-8.158-4.534-8.158s1.9-16.361-4.971-21.871-18.7-5.433-25.486,0-4.808,21.871-4.808,21.871-4.912,3.921-4.823,6.974S1211.2,653.38,1211.2,653.38Z" transform="translate(475.016 -553.323)" fill="#f2f2f2" stroke="gray" stroke-width="2"/>
    <ellipse id="Elipse_12" data-name="Elipse 12" cx="4.953" cy="4.953" rx="4.953" ry="4.953" transform="translate(1714.099 67.198)" fill="#984de3"/>
  </g>
</svg>
