<svg id="Layer_1" height="512" viewBox="0 0 128 128" width="512" xmlns="http://www.w3.org/2000/svg" data-name="Layer 1"><path d="m116.5 96.348h-8.66v-67.694a1.735 1.735 0 0 0 -.425-1.132.4.4 0 0 0 -.024-.039l-11.046-12.275a1.749 1.749 0 0 0 -1.3-.58h-62.089a1.749 1.749 0 0 0 -1.3.58l-11.047 12.275c-.005.006 0 .015-.01.021a1.736 1.736 0 0 0 -.44 1.149v67.695h-8.659a1.75 1.75 0 0 0 0 3.5h39.178a17.529 17.529 0 0 0 24.449 2.158l10.852 10.853a1.75 1.75 0 0 0 2.475-2.475l-10.536-10.536h38.582a1.75 1.75 0 0 0 0-3.5zm-14.339-69.448h-25.516l-4.935-8.772h22.555zm-48.032 3.5h19.742v14.5l-9.064-4.7a1.748 1.748 0 0 0 -1.613 0l-9.064 4.711zm13.565-12.272 4.935 8.772h-17.258l4.935-8.775zm-33.959 0h22.555l-4.935 8.772h-25.516zm-10.075 78.22v-65.948h26.969v17.389a1.75 1.75 0 0 0 2.557 1.553l10.814-5.621 10.814 5.621a1.75 1.75 0 0 0 2.557-1.553v-17.389h26.969v65.948h-24.674a17.583 17.583 0 1 0 -31.331 0zm26.257-7.948a14.083 14.083 0 1 1 14.083 14.088 14.1 14.1 0 0 1 -14.083-14.088z"/><path d="m64 78.487a1.75 1.75 0 0 0 0 3.5 6.425 6.425 0 0 1 6.418 6.413 1.75 1.75 0 1 0 3.5 0 9.929 9.929 0 0 0 -9.918-9.913z"/></svg>