<?xml version="1.0" encoding="utf-8"?>
<!-- Generator: Adobe Illustrator 23.0.0, SVG Export Plug-In . SVG Version: 6.00 Build 0)  -->
<svg version="1.1" id="Capa_1" xmlns="http://www.w3.org/2000/svg" xmlns:xlink="http://www.w3.org/1999/xlink" x="0px" y="0px"
	 viewBox="0 0 595.28 841.89" style="enable-background:new 0 0 595.28 841.89;" xml:space="preserve">
<style type="text/css">
	.st0{fill:none;stroke:#6F6F6E;stroke-width:8;stroke-miterlimit:10;}
	.st1{fill:#6F6F6E;}
	.st2{fill:#CC675C;}
	.st3{fill:#209DAD;}
	.st4{fill:#B2B3B2;}
	.st5{fill:#FFFFFF;}
	.st6{fill:none;stroke:#6F6F6E;stroke-width:2;stroke-miterlimit:10;}
	.st7{fill:none;stroke:#6F6F6E;stroke-width:12;stroke-miterlimit:10;}
</style>
<path class="st0" d="M274.57,457.43H125.71c-3.87,0-7-3.13-7-7v-84.29c0-3.87,3.13-7,7-7h148.86c3.87,0,7,3.13,7,7v84.29
	C281.57,454.29,278.44,457.43,274.57,457.43z"/>
<path class="st1" d="M291.69,463.89H104.6c-2.35,0-4.25,1.9-4.25,4.25v0c0,2.35,1.9,4.25,4.25,4.25h187.09
	c2.35,0,4.25-1.9,4.25-4.25v0C295.94,465.79,294.03,463.89,291.69,463.89z"/>
<path class="st2" d="M178.5,380.14h-30.21c-1.18,0-2.14-0.96-2.14-2.14v-5.57c0-1.18,0.96-2.14,2.14-2.14h30.21
	c1.18,0,2.14,0.96,2.14,2.14V378C180.64,379.18,179.68,380.14,178.5,380.14z"/>
<rect x="146.14" y="385.07" class="st3" width="106.07" height="31.07"/>
<path class="st4" d="M175.18,438.43h-25.93c-1.72,0-3.11-1.39-3.11-3.11v-12.64c0-1.72,1.39-3.11,3.11-3.11h25.93
	c1.72,0,3.11,1.39,3.11,3.11v12.64C178.29,437.04,176.89,438.43,175.18,438.43z"/>
<rect x="146.14" y="442.71" class="st4" width="22.68" height="1.71"/>
<rect x="146.14" y="447.14" class="st4" width="30" height="1.71"/>
<path class="st4" d="M212.14,438.43h-25.93c-1.72,0-3.11-1.39-3.11-3.11v-12.64c0-1.72,1.39-3.11,3.11-3.11h25.93
	c1.72,0,3.11,1.39,3.11,3.11v12.64C215.25,437.04,213.86,438.43,212.14,438.43z"/>
<rect x="183.11" y="442.71" class="st4" width="32.14" height="1.71"/>
<rect x="183.11" y="447.14" class="st4" width="31.55" height="1.71"/>
<path class="st4" d="M248.68,438.57h-25.93c-1.72,0-3.11-1.39-3.11-3.11v-12.64c0-1.72,1.39-3.11,3.11-3.11h25.93
	c1.72,0,3.11,1.39,3.11,3.11v12.64C251.79,437.18,250.39,438.57,248.68,438.57z"/>
<rect x="219.64" y="442.86" class="st4" width="29.32" height="1.71"/>
<rect x="219.64" y="447.29" class="st4" width="32.14" height="1.71"/>
<circle class="st5" cx="201.46" cy="359.14" r="2.29"/>
<path class="st4" d="M379.21,507.96h-28.95c-0.82,0-1.49-0.67-1.49-1.49v-13.52c0-0.82,0.67-1.49,1.49-1.49h28.95
	c0.82,0,1.49,0.67,1.49,1.49v13.52C380.7,507.3,380.03,507.96,379.21,507.96z"/>
<path class="st3" d="M379.36,489.36h-29.25c-0.74,0-1.34-0.6-1.34-1.34V474.2c0-0.74,0.6-1.34,1.34-1.34h29.25
	c0.74,0,1.34,0.6,1.34,1.34v13.82C380.7,488.76,380.1,489.36,379.36,489.36z"/>
<path class="st2" d="M379.5,471.54h-29.54c-0.66,0-1.2-0.54-1.2-1.2v-6.5c0-0.66,0.54-1.2,1.2-1.2h29.54c0.66,0,1.2,0.54,1.2,1.2
	v6.5C380.7,471,380.16,471.54,379.5,471.54z"/>
<g>
	<rect x="344.14" y="511.07" class="st1" width="41.04" height="12.86"/>
	<rect x="344.14" y="450.46" class="st1" width="41.04" height="8.43"/>
	<path class="st6" d="M381.39,524.68h-33.32c-2.6,0-4.71-2.11-4.71-4.71v-65.68c0-2.6,2.11-4.71,4.71-4.71h33.32
		c2.6,0,4.71,2.11,4.71,4.71v65.68C386.11,522.57,384,524.68,381.39,524.68z"/>
</g>
<circle class="st5" cx="364.66" cy="517.5" r="4.07"/>
<path class="st5" d="M375.41,454.95h-20.24c-0.33,0-0.59-0.27-0.59-0.59v-0.78c0-0.33,0.27-0.59,0.59-0.59h20.24
	c0.33,0,0.59,0.27,0.59,0.59v0.78C376,454.68,375.73,454.95,375.41,454.95z"/>
<path class="st2" d="M412.93,384.71H385.5c-1.07,0-1.93-0.86-1.93-1.93v-6.29c0-1.07,0.86-1.93,1.93-1.93h27.43
	c1.07,0,1.93,0.86,1.93,1.93v6.29C414.86,383.85,413.99,384.71,412.93,384.71z"/>
<path class="st3" d="M442.43,420.86h-55c-2.13,0-3.86-1.73-3.86-3.86v-23.43c0-2.13,1.73-3.86,3.86-3.86h55
	c2.13,0,3.86,1.73,3.86,3.86V417C446.29,419.13,444.56,420.86,442.43,420.86z"/>
<path class="st4" d="M410.36,442.71H386.5c-1.62,0-2.93-1.31-2.93-2.93v-13.43c0-1.62,1.31-2.93,2.93-2.93h23.86
	c1.62,0,2.93,1.31,2.93,2.93v13.43C413.29,441.4,411.97,442.71,410.36,442.71z"/>
<path class="st4" d="M403.86,447.14v1.57h-17.58c-0.8-0.6-1.71-1.05-2.71-1.31v-0.26H403.86z"/>
<path class="st4" d="M410.89,451.16v1.57H389.1c-0.17-0.55-0.39-1.08-0.67-1.57H410.89z"/>
<rect x="389.43" y="455.71" class="st4" width="23.86" height="1.58"/>
<rect x="389.43" y="460.27" class="st4" width="14.97" height="1.57"/>
<rect x="389.43" y="464.82" class="st4" width="23.86" height="1.57"/>
<path class="st4" d="M442.9,442.71h-23.86c-1.62,0-2.93-1.31-2.93-2.93v-13.43c0-1.62,1.31-2.93,2.93-2.93h23.86
	c1.62,0,2.93,1.31,2.93,2.93v13.43C445.83,441.4,444.52,442.71,442.9,442.71z"/>
<rect x="416.12" y="447.14" class="st4" width="28.24" height="1.57"/>
<rect x="416.12" y="451.16" class="st4" width="25.31" height="1.57"/>
<rect x="416.12" y="455.71" class="st4" width="28.06" height="1.57"/>
<rect x="415.57" y="460.27" class="st4" width="23.39" height="1.57"/>
<rect x="415.57" y="464.82" class="st4" width="27.18" height="1.57"/>
<path class="st0" d="M389.43,478h60.86c4.5,0,8.14-3.65,8.14-8.14v-98c0-4.5-3.65-8.14-8.14-8.14h-69.43c-4.5,0-8.14,3.65-8.14,8.14
	v75.29"/>
<circle class="st5" cx="416.12" cy="363.71" r="2.6"/>
<path class="st1" d="M339.86,411.43h-53.57v-29.77c1.38-0.01,18.67-0.11,20.07-0.12c1.28-0.01,18-0.1,19.3-0.11c0,3.67,0,7.33,0,11
	c0,3.67,0,7.33,0,11C330.39,406.09,335.12,408.76,339.86,411.43z"/>
<rect x="286.29" y="415" class="st1" width="53.57" height="5.21"/>
<line class="st7" x1="365.29" y1="381.43" x2="286.29" y2="381.43"/>
<path class="st7" d="M205.86,353.57v-86.21c0-6.35,5.15-11.5,11.5-11.5H397.5c6.35,0,11.5,5.15,11.5,11.5v89.5"/>
<path class="st2" d="M284.36,274.58h-33.72c-1.18,0-2.14-0.96-2.14-2.14v-6.57c0-1.18,0.96-2.14,2.14-2.14h33.72
	c1.18,0,2.14,0.96,2.14,2.14v6.57C286.51,273.62,285.55,274.58,284.36,274.58z"/>
<rect x="248.5" y="280" class="st3" width="116.85" height="34.23"/>
<path class="st4" d="M280.8,338.78h-29.19c-1.72,0-3.11-1.39-3.11-3.11v-14.56c0-1.72,1.39-3.11,3.11-3.11h29.19
	c1.72,0,3.11,1.39,3.11,3.11v14.56C283.91,337.39,282.52,338.78,280.8,338.78z"/>
<rect x="248.5" y="343.5" class="st4" width="24.98" height="1.89"/>
<rect x="248.5" y="348.38" class="st4" width="33.05" height="1.89"/>
<path class="st4" d="M321.52,338.78h-29.19c-1.72,0-3.11-1.39-3.11-3.11v-14.56c0-1.72,1.39-3.11,3.11-3.11h29.19
	c1.72,0,3.11,1.39,3.11,3.11v14.56C324.63,337.39,323.24,338.78,321.52,338.78z"/>
<rect x="289.22" y="343.5" class="st4" width="35.41" height="1.89"/>
<rect x="289.22" y="348.38" class="st4" width="34.76" height="1.89"/>
<path class="st4" d="M361.77,338.94h-29.19c-1.72,0-3.11-1.39-3.11-3.11v-14.56c0-1.72,1.39-3.11,3.11-3.11h29.19
	c1.72,0,3.11,1.39,3.11,3.11v14.56C364.88,337.55,363.49,338.94,361.77,338.94z"/>
<rect x="329.47" y="343.66" class="st4" width="32.3" height="1.89"/>
<rect x="329.47" y="348.54" class="st4" width="35.41" height="1.89"/>
<circle class="st5" cx="307.43" cy="255.86" r="2.29"/>
<rect x="248.5" y="352.38" class="st4" width="33.05" height="1.89"/>
<rect x="289.22" y="352.38" class="st4" width="32.37" height="1.89"/>
<rect x="329.59" y="352.38" class="st4" width="34.13" height="1.89"/>
</svg>
