<svg id="Capa_1" data-name="Capa 1" xmlns="http://www.w3.org/2000/svg" viewBox="0 0 208.34 254.25"><defs>
<style>
.cls-1{fill:#fee8cb;}
.cls-2{fill:#ffd297;}
.cls-3{fill:#eaf4f4;opacity:0.69;}
.cls-4{fill:#848484;}
.cls-5{fill:#757575;}
.cls-6,.cls-7{fill:#563517;}
.cls-7{stroke:#472914;}
.cls-13,.cls-14,.cls-7{stroke-miterlimit:10;}
.cls-8{fill:#191818;}.cls-9{fill:#63422c;}.cls-10{fill:#ffb87b;}.cls-11{fill:#f4900b;}.cls-12{fill:#595753;}.cls-13{fill:none;}.cls-13,.cls-14{stroke:#000;stroke-width:0.25px;}.cls-15{fill:#514b4b;}.cls-16{fill:#efa873;}.cls-17{fill:#4c4b48;}.cls-18{fill:#331906;}.cls-19{fill:#4c2d14;}.cls-20{fill:#3fe8ed;opacity:0.43;}.cls-21{fill:#4d6060;}</style></defs><title>Servicios</title><path id="Trazado_2" data-name="Trazado 2" class="cls-1" d="M60.41,160.73c27.21-36.21,106.87-38.91,159.68,3.51,39.14,31.44,37.85,99.63,10.13,132.89-3.49,4.18-16.18,19.41-36.93,25-19.23,5.19-28.47-2.45-59.15,1.72-16.11,2.19-24.17,3.28-32.57,8.57-25.3,15.92-32,52.71-35.67,51.46-.38-.13-.3-.52-1.3-3.35a83.13,83.13,0,0,0-4.19-9.62C47,342.36,43.2,269.11,43.2,269.11c-1-18.52-1.45-27.78-1.09-34.68C43,218.23,44.86,181.41,60.41,160.73Z" transform="translate(-41.99 -129.68)"/><path id="Trazado_3" data-name="Trazado 3" class="cls-2" d="M61.13,160.73c37.1-51.68,109-30.59,148.42,3.51S245.5,256.86,219,297.13s-76.12,9.76-115.58,28.21-31.69,86.73-42.25,45.58S24,212.4,61.13,160.73Z" transform="translate(-41.99 -129.68)"/><path class="cls-3" d="M187.6,204.4l-15.39-18.28q3.43,8.9,6.86,17.79l-17.25-3.32,15,13L156,210l12,6.25-16.79,3,17.1,4.17L151,229.62l28.83,2.51Z" transform="translate(-41.99 -129.68)"/><polygon points="90.53 165.01 73.17 165.01 78.45 159.07 81.85 155.24 90.53 165.01"/><path class="cls-4" d="M122.33,270.61h3.12c2.22,8.22,1.85,15.41,0,17.6a2,2,0,0,1-3.24-.1C120.36,285.82,120,278.63,122.33,270.61Z" transform="translate(-41.99 -129.68)"/><path class="cls-5" d="M122.27,270.84c.71,1,1.47,2,2.27,3s1.4,1.73,2.09,2.55c-.13-.9-.29-1.84-.49-2.83s-.44-2-.69-2.93Z" transform="translate(-41.99 -129.68)"/><path class="cls-6" d="M129.19,270.58h20.08a2.38,2.38,0,0,0,1.07-2,2.48,2.48,0,0,0-1.07-2c-4.46-.54-9.28-.94-14.42-1.1-9-.28-27.81,1-28.08,1.69-.33.86,1.23,2.21,1.33,2.3a5.06,5.06,0,0,0,2.36,1.15C112.49,271,119.58,271,129.19,270.58Z" transform="translate(-41.99 -129.68)"/><path class="cls-6" d="M114.54,270.53c0,.36-2.55.57-4.9.12a14.13,14.13,0,0,1-7.65-4.48,13.53,13.53,0,0,1-3.07-8.78l1.25.23c.56,4.24,2.14,6.34,3.52,7.47a27.51,27.51,0,0,0,7.49,4.21C113.14,270,114.58,270.25,114.54,270.53Z" transform="translate(-41.99 -129.68)"/><path class="cls-7" d="M99,258.42a2.31,2.31,0,0,0,1.61-.14c3.57-1.53,2.38-9.69,1.85-23.81-.17-4.55-.38-11.59-.4-20.37.06-2.57-1.07-4.43-2.06-4.53s-2.61,1.67-2.85,4.53c.37,8.49.31,15.49.18,20.45C97,247.63,95.82,257.35,99,258.42Z" transform="translate(-41.99 -129.68)"/><path class="cls-8" d="M178.6,234.39a.39.39,0,0,0,0,.33,1.07,1.07,0,0,0,1.55,0,.49.49,0,0,0,0-.51A1.09,1.09,0,0,0,178.6,234.39Z" transform="translate(-41.99 -129.68)"/><path class="cls-8" d="M150,235.56a212.77,212.77,0,0,0,24-.71q3.68-.33,7.18-.75,1.68-4.71,3.21-9.89A192,192,0,0,0,189,204.4H187.6l-7.77,27.73-26.29,1.73Z" transform="translate(-41.99 -129.68)"/><polygon class="cls-9" points="105.42 111.65 151.32 110.69 151.32 104.67 103.69 105.9 103.69 111.65 105.42 111.65"/><path class="cls-10" d="M159.82,184.65l0-.13a4.5,4.5,0,0,1-4-3.17,3.61,3.61,0,0,1-.36-.23,8.36,8.36,0,0,0-5.5-1.26,5.17,5.17,0,0,1-.77.58c-3,1.84-5.48,4.42-8.61,6a23.5,23.5,0,0,1-3.85,1.75,7.24,7.24,0,0,1-.39,2.22,4.09,4.09,0,0,1-2.49,3.2,13.74,13.74,0,0,1-3.64,2.57c2.68,4,4.64,6.9,5.86,8.75a26.56,26.56,0,0,0,3.68,4.74c2.33,2.28,3.84,3.76,5.81,3.84,4.23.17,8.55-6.21,9.59-9.8a14.15,14.15,0,0,1,3.69-6.48,14.45,14.45,0,0,0,2-7.32A14.27,14.27,0,0,0,159.82,184.65Z" transform="translate(-41.99 -129.68)"/><path d="M160.1,182.67a4,4,0,0,1,.11-.71,2.85,2.85,0,0,1,0-.4v-.07a4.76,4.76,0,0,1,.06-.65,2.93,2.93,0,0,1,0-.29c-.18-1.06-.44-2.08-.64-3.12a4.89,4.89,0,0,1-.65-1.29v0a4.28,4.28,0,0,1-1.18-1.46,4.38,4.38,0,0,1-1.17-1.18l-.3-.23a4.5,4.5,0,0,1-1.06-.58,4.49,4.49,0,0,1-1.85-.73.88.88,0,0,0-.45.13c-.81.58.08,2.86-.46,3.06s-1.21-1.92-3.33-3.3c-1.69-1.1-3.73-1.37-4-.92s2.26,2.31,2,2.78c-.19.3-1.35-.24-3.87-.58-1.76-.24-2-.08-2.05,0s.12.31,1.28,1.37c.87.79,1.08.93,1,1-.14.31-2.71-1.32-5.59-.91-2.48.36-4.46,2.14-4.29,2.56s3.42-.48,3.47-.26-1.71.61-3.82,1.76c-1.77,1-3.19,2.1-3,2.41s1.63-.6,2.76.09a2.06,2.06,0,0,1,.94,2.17c-.32.9-1.55.64-3,1.7s-2.35,3.11-2,3.45,1.6-1.11,2.93-.67c1,.31,1.64,1.5,1.37,2s-1.58-.14-3,.59c-1.06.55-1.84,1.7-1.59,2.17.15.29.65.19,2.42.21,2.77,0,2.94.3,3,.4s-.06.57-1.2,1.38c-.2.7-.29,1.34,0,1.55.66.49,2.68-1.67,3.28-1.23s-1.31,4-.62,4.48,2.26-1.65,3.19-1.16.09,3.08.71,3.32,2.91-2.09,3.32-5.1c.36-2.7-1-4.63-.12-5.24.69-.51,2.1.41,2.24.5,2.42,1.57,2.26,5.22,2.24,5.67a8.68,8.68,0,0,0,2-2.24,6.42,6.42,0,0,0,1.24-4.55,5.47,5.47,0,0,0-1.31-2.7,5.12,5.12,0,0,0,.92-1.78,5,5,0,0,0,.16-2,13.92,13.92,0,0,0,3.83,1.06,14.16,14.16,0,0,0,6-.56c.06-.21.12-.5.19-.83a4.18,4.18,0,0,1,.08-1A.71.71,0,0,1,160.1,182.67Z" transform="translate(-41.99 -129.68)"/><path d="M153.89,192.57a1.61,1.61,0,0,1,0,.48.82.82,0,0,1,0,.21c0,.52,2.51,1.12,2.51,1.12h0l2.1.93h0a2.48,2.48,0,0,0,.28-.89,1.36,1.36,0,0,0-.5-.92c-.39-.37-.86-.53-2.69-.75C155.17,192.7,154.59,192.63,153.89,192.57Z" transform="translate(-41.99 -129.68)"/><path d="M155.62,198.53a3.22,3.22,0,0,0-.91-1.06,2.32,2.32,0,0,0-.87-.46,2.37,2.37,0,0,0-1.78.3,2.57,2.57,0,0,0,.88,1.35,2.34,2.34,0,0,0,1.27.52,3.31,3.31,0,0,1,1,0c.19,0,.33.11.41,0S155.71,198.81,155.62,198.53Z" transform="translate(-41.99 -129.68)"/><path class="cls-11" d="M130.45,196.38c-2.9-.43-9.83-.93-15.35,4.48-4.61,4.52-5.89,10.87-7.79,21a122.4,122.4,0,0,0-2,27.32l28,.77q1.28-12.47,2.34-25.35.75-9.26,1.37-18.31Z" transform="translate(-41.99 -129.68)"/><path class="cls-10" d="M135.41,223.55c.79,1.1,3.86.13,5.14-.26a56.51,56.51,0,0,1,21.09-2.36,15.91,15.91,0,0,1,5.79,1.85,12.16,12.16,0,0,1,2.47,1.85,6.73,6.73,0,0,1,1.72,2.35l0,.08c.17.64.16,1.56-.22,1.77s-1.28-.51-1.71-.88c-.6-.52-.81-.91-1-.85-.33.13.42,2-.12,2.37-.25.15-.55-.13-1.65-.56-.69-.26-1.75-.67-1.93-.42s1.07,1.27.85,1.73c-.3.64-3.24-.16-3.53-.24-5.61-1.51-11.17,4.37-20.26,6.69-2.42.61-10.83,2.76-17.52-1.55-2.67-1.71-6.12-5.14-5.38-7.82.81-2.91,6.31-3.89,10.14-4.63a29.92,29.92,0,0,1,6-.53A1.66,1.66,0,0,0,135.41,223.55Z" transform="translate(-41.99 -129.68)"/><path class="cls-12" d="M139.36,267.93c.71,1.38-.39,3.54-1.12,5.08a10.62,10.62,0,0,1-2.74,3.55,11,11,0,0,1-2.2,1.51l-.44.2a33.24,33.24,0,0,1,3.82,3.69,14.68,14.68,0,0,1,1.23,2l0-.36a4,4,0,0,1,1.06.79c.13.14.2.23.29.22.28-.06.13-1.14.4-1.86.44-1.15,1.95-1.27,4.66-1.85,1-.21,2.35-.53,4-1l-.42-30.41c-2.43-.45-5.73-1-9.65-1.31a110.42,110.42,0,0,0-11.36-.38,208.89,208.89,0,0,0-21.51,1.39,22.86,22.86,0,0,0,1.21,8c.85,2.47,2.34,6.84,6,9.09,1.81,1.11,3.33,1.21,14.67.64C135.34,266.51,138.49,266.26,139.36,267.93Z" transform="translate(-41.99 -129.68)"/><path class="cls-13" d="M102.64,274.47" transform="translate(-41.99 -129.68)"/><path class="cls-14" d="M137.91,283.49a11.57,11.57,0,0,1-1-1.49c-.71-.87-1.86-2.16-3.64-4a17.35,17.35,0,0,1-2.93.89c-1.61.33-2.47.26-2.8.93-.1.2-.18.55.39,2.29a18,18,0,0,0,1.14,2.91c.91,1.72,2.74,5.21,6.28,6.84,1.69.78,3.27.79,6.43.87a31.27,31.27,0,0,0,5.14-.29c-.14-.68-.61-2.65-1.81-3.06a6,6,0,0,0-2.07,0c-.5,0-.91.09-1.19.13a1.79,1.79,0,0,1-.7-.35,2.12,2.12,0,0,1-.64-1,1.83,1.83,0,0,1-1-.75,2.88,2.88,0,0,1-.33-1.17,8.45,8.45,0,0,1-.11-1.5h0l-.37-.44A8.2,8.2,0,0,1,137.91,283.49Z" transform="translate(-41.99 -129.68)"/><path d="M85.89,249.47" transform="translate(-41.99 -129.68)"/><path class="cls-15" d="M174.25,233.37l-.54.93.31,0,.53-.94Z" transform="translate(-41.99 -129.68)"/><path class="cls-15" d="M174.89,233.31l-.54.94.31,0,.53-.93Z" transform="translate(-41.99 -129.68)"/><path class="cls-15" d="M175.49,233.26l-.54.94.31,0,.52-.93Z" transform="translate(-41.99 -129.68)"/><path class="cls-15" d="M176.1,233.21l-.54.94.31,0,.53-.94Z" transform="translate(-41.99 -129.68)"/><path class="cls-15" d="M176.75,233.16l-.54.93.3,0,.53-.94Z" transform="translate(-41.99 -129.68)"/><path class="cls-15" d="M177.34,233.1l-.54.94.31,0,.53-.93Z" transform="translate(-41.99 -129.68)"/><path class="cls-16" d="M137,206.28c6.57,5.16,9.89,5.36,11.71,4.41,2.49-1.29,2.19-4.7,7-11.17a29.8,29.8,0,0,0,2.42-3.19c2.22-4,1.9-8.35,1.23-11.55l.44-.13a14,14,0,0,1,1,5.49,16,16,0,0,1-2,7.13c-1.29,2.45-3,4.32-3.69,6.48-.07.19-.29.89-.69,1.8a19.87,19.87,0,0,1-1.08,2c-.77,1.22-4,6.24-7.82,6a6,6,0,0,1-2.94-1.22A15.9,15.9,0,0,1,137,206.28Z" transform="translate(-41.99 -129.68)"/><path d="M150,206.3c-1-.7-1.35-.48-2.31-1.12-1.17-.78-1.59-1.75-1.86-1.62s-.14.59,0,.95a2.51,2.51,0,0,0,1.44,1.26c2.8,1.29,3.92,2.22,4.07,2S150.69,206.8,150,206.3Z" transform="translate(-41.99 -129.68)"/><path class="cls-16" d="M135.34,222.14,122,233.05c-.26-.25-.61-.6-1-1a9,9,0,0,1-1-1.39,4.23,4.23,0,0,1-.77-3.1,3.4,3.4,0,0,1,.64-1.32,5.06,5.06,0,0,1,2-1.44,16,16,0,0,1,2.77-1c.27-.08,1.09-.32,2.76-.67,1.39-.29,2.37-.49,3.65-.65A31,31,0,0,1,135.34,222.14Z" transform="translate(-41.99 -129.68)"/><path class="cls-16" d="M122,233.05c2.8-1.22,5.8-2.66,8.92-4.36s5.84-3.36,8.34-5c-.2,0-.49.13-.84.19a7.24,7.24,0,0,1-1.07.17c-.6,0-1.45.08-1.86-.44a1.64,1.64,0,0,1-.11-1.46Z" transform="translate(-41.99 -129.68)"/><path class="cls-17" d="M138.2,248.16c.68,3.4,1.73,8.18,3.26,13.85,2,7.49,4.91,18.19,6.34,18,1-.14,1.66-5.82,0-30.54-1.62-.29-3.31-.57-5.08-.8C141.19,248.46,139.67,248.29,138.2,248.16Z" transform="translate(-41.99 -129.68)"/><path class="cls-18" d="M148,294.69h43.66q.31-27.17.62-54.33l-44.82,1Z" transform="translate(-41.99 -129.68)"/><path class="cls-19" d="M111.18,266.42c-.16.13.55,1.47,1.32,2.27,2.27,2.37,26.57,1.77,27,.18a1.77,1.77,0,0,0-.48-1.4c-.28-.33-.79-.69-2.81-.86a19.11,19.11,0,0,0-2.51-.05c-5.16.28.38-.15-4.59.21-3.62.27-5.43.4-6.46.49,0,0-2.08.19-5.5.43-.07,0-.5,0-1.07.05a13.81,13.81,0,0,1-1.44,0,6.68,6.68,0,0,1-1.26-.16C112,267.25,111.32,266.3,111.18,266.42Z" transform="translate(-41.99 -129.68)"/><path class="cls-20" d="M137,206.28a25.48,25.48,0,0,0,5.12,4.84c2.24,1.59,3.38,1.82,4.33,1.68a4.58,4.58,0,0,0,2.22-1.13A20.7,20.7,0,0,0,154,205c1.3-2.47,1.06-2.8,2.42-5,1.18-1.94,1.47-1.87,2.26-3.35a15.52,15.52,0,0,0,1.75-6.17,15.23,15.23,0,0,0-.74-5.71l.11,0a14,14,0,0,1,1,5.49,16,16,0,0,1-2,7.13c-1.29,2.45-3,4.32-3.69,6.48-.07.19-.29.89-.69,1.8a19.87,19.87,0,0,1-1.08,2c-.77,1.22-4,6.24-7.82,6a6,6,0,0,1-2.94-1.22A15.9,15.9,0,0,1,137,206.28Z" transform="translate(-41.99 -129.68)"/><path class="cls-21" d="M159.53,184.73a.53.53,0,0,0,.29-.08c.21-.15.22-.43.3-1.22.06-.58,0-.39.06-.58a12.44,12.44,0,0,0,.06-2.61,10.22,10.22,0,0,0-1.05-3.6,11.36,11.36,0,0,0-1.06-1.58,11.13,11.13,0,0,0-1.69-1.66,10.48,10.48,0,0,0-1-.72,7.28,7.28,0,0,0-1.72-.73.92.92,0,0,0-.46,0,.9.9,0,0,0-.39.15h0a1.19,1.19,0,0,0-.2.19,6.14,6.14,0,0,1,1.47.25,6.56,6.56,0,0,1,2.77,1.86,10.24,10.24,0,0,1,2.21,3.1A10.71,10.71,0,0,1,159.53,184.73Z" transform="translate(-41.99 -129.68)"/><path class="cls-20" d="M163.56,221.27a14.86,14.86,0,0,1,4.27,1.74,12.22,12.22,0,0,1,2.72,2.28,3.78,3.78,0,0,1,1.17,2.2,3,3,0,0,1-.12,1.13,13.31,13.31,0,0,0-8-7.35Z" transform="translate(-41.99 -129.68)"/></svg>