<svg id="Capa_1" data-name="Capa 1" xmlns="http://www.w3.org/2000/svg" viewBox="0 0 90 90"><title>Whatsapp</title><path id="WhatsApp" d="M90,43.84A44.26,44.26,0,0,1,24.46,82.23L0,90,8,66.48A43.44,43.44,0,0,1,1.63,43.84a44.19,44.19,0,0,1,88.37,0ZM45.82,7A37,37,0,0,0,8.67,43.84a36.45,36.45,0,0,0,7.08,21.61L11.11,79.14,25.38,74.6A37.18,37.18,0,0,0,83,43.84,37,37,0,0,0,45.82,7Zm22.31,47c-.27-.45-1-.72-2.08-1.26s-6.41-3.13-7.4-3.49-1.71-.54-2.43.54-2.8,3.49-3.44,4.21-1.26.81-2.34.27a29.74,29.74,0,0,1-8.71-5.33,32.63,32.63,0,0,1-6-7.45c-.63-1.07-.06-1.65.48-2.19S37.26,38,37.8,37.36a7,7,0,0,0,1.09-1.79,2,2,0,0,0-.09-1.88c-.27-.54-2.44-5.83-3.34-8S33.65,23.92,33,23.92s-1.35-.09-2.08-.09a4,4,0,0,0-2.88,1.34,12,12,0,0,0-3.79,9c0,5.29,3.88,10.4,4.42,11.12s7.49,11.92,18.5,16.22,11,2.87,13,2.69,6.4-2.6,7.31-5.11S68.4,54.39,68.13,53.94Z" transform="translate(0 0)"/></svg>