<svg id="Capa_1" data-name="Capa 1" xmlns="http://www.w3.org/2000/svg" viewBox="0 0 382.97 295.13"><defs><style>.cls-1{fill:none;stroke:#fff;stroke-miterlimit:10;stroke-width:21px;}</style></defs><title>cart</title>
<path d="M838.5,411H779.43a11,11,0,1,1,0-22H838.5a11,11,0,0,1,0,22Z" transform="translate(-768.43 -389)" fill="#fff"/>
<path d="M915.09,608.71c-3.1,1.09-6.43-.27-7.29-.62-6.32-2.58-8.09-9.23-8.3-10.09L828,408a19.4,19.4,0,0,1,.27-9c.65-2.35,2-7.35,6.2-9.16s9.53,0,13.47,4.41l1,2.21a1396.42,1396.42,0,0,1,72.81,192.76C923.49,599,920.17,606.93,915.09,608.71Z" transform="translate(-768.43 -389)" fill="#fff"/>
<path d="M910.38,608.71H1055.5a10.07,10.07,0,0,0,0-20.14H910.38c-5.93.81-10,6.14-9.29,11.41A10.44,10.44,0,0,0,910.38,608.71Z" transform="translate(-768.43 -389)" fill="#fff"/>
<circle class="cls-1" cx="150.58" cy="254.42" r="30.22"/>
<circle class="cls-1" cx="282.09" cy="254.42" r="30.22"/>
<rect x="134.71" y="162.71" width="168.21" height="20.14" rx="10.07" fill="#fff"/>
<path d="M1055.44,570.42c-5-3-7-8.9-4.49-13.12,0,0,82.56-134.78,85.6-135.78,2-.67,6.8-2.22,10.68.37a10.25,10.25,0,0,1,3.91,10.69c-.27.56-50.12,92.16-82,135.7A11.34,11.34,0,0,1,1055.44,570.42Z" transform="translate(-768.43 -389)" fill="#fff"/>
<rect x="122.71" y="30.43" width="260.23" height="20.14" rx="10.07" fill="#fff"/>
<path d="M786.57,567.43" transform="translate(-768.43 -389)" fill="#fff"/>
</svg>